<svg xmlns="http://www.w3.org/2000/svg" width="900" height="560" viewBox="0 0 900 560">
<style>text{font-family:Arial,Helvetica,sans-serif;fill:#1f2933}.title{font-size:20px;font-weight:700}.label{font-size:13px}.tick{font-size:12px;fill:#52606d}.legend{font-size:13px}.grid{stroke:#d9e2ec;stroke-width:1}.axis{stroke:#243b53;stroke-width:1.4}</style>
<rect width="100%" height="100%" fill="#ffffff"/>
<text x="90" y="38" class="title">Completion latency for large bulk retrieval</text>
<line x1="90" y1="480.0" x2="680" y2="480.0" class="grid"/>
<text x="78" y="484.0" text-anchor="end" class="tick">0</text>
<line x1="90" y1="411.7" x2="680" y2="411.7" class="grid"/>
<text x="78" y="415.7" text-anchor="end" class="tick">5</text>
<line x1="90" y1="343.3" x2="680" y2="343.3" class="grid"/>
<text x="78" y="347.3" text-anchor="end" class="tick">10</text>
<line x1="90" y1="275.0" x2="680" y2="275.0" class="grid"/>
<text x="78" y="279.0" text-anchor="end" class="tick">15</text>
<line x1="90" y1="206.7" x2="680" y2="206.7" class="grid"/>
<text x="78" y="210.7" text-anchor="end" class="tick">20</text>
<line x1="90" y1="138.3" x2="680" y2="138.3" class="grid"/>
<text x="78" y="142.3" text-anchor="end" class="tick">25</text>
<line x1="90" y1="70.0" x2="680" y2="70.0" class="grid"/>
<text x="78" y="74.0" text-anchor="end" class="tick">30</text>
<line x1="90" y1="70" x2="90" y2="480" class="axis"/>
<line x1="90" y1="480" x2="680" y2="480" class="axis"/>
<text x="90.0" y="508" text-anchor="middle" class="tick">50k</text>
<text x="237.5" y="508" text-anchor="middle" class="tick">100k</text>
<text x="680.0" y="508" text-anchor="middle" class="tick">250k</text>
<text x="385.0" y="542" text-anchor="middle" class="label">Rows returned</text>
<text x="22" y="275.0" text-anchor="middle" class="label" transform="rotate(-90 22 275.0)">Median completion time (s)</text>
<polyline points="90.0,312.7 237.5,262.2 680.0,112.6" fill="none" stroke="#3b4252" stroke-width="3"/>
<circle cx="90.0" cy="312.7" r="5" fill="#3b4252"/>
<circle cx="237.5" cy="262.2" r="5" fill="#3b4252"/>
<circle cx="680.0" cy="112.6" r="5" fill="#3b4252"/>
<polyline points="90.0,374.3 237.5,372.4 680.0,313.8" fill="none" stroke="#2a9d8f" stroke-width="3"/>
<circle cx="90.0" cy="374.3" r="5" fill="#2a9d8f"/>
<circle cx="237.5" cy="372.4" r="5" fill="#2a9d8f"/>
<circle cx="680.0" cy="313.8" r="5" fill="#2a9d8f"/>
<polyline points="90.0,380.5 237.5,352.9 680.0,309.2" fill="none" stroke="#457b9d" stroke-width="3"/>
<circle cx="90.0" cy="380.5" r="5" fill="#457b9d"/>
<circle cx="237.5" cy="352.9" r="5" fill="#457b9d"/>
<circle cx="680.0" cy="309.2" r="5" fill="#457b9d"/>
<polyline points="90.0,373.3 237.5,351.6 680.0,278.3" fill="none" stroke="#e76f51" stroke-width="3"/>
<circle cx="90.0" cy="373.3" r="5" fill="#e76f51"/>
<circle cx="237.5" cy="351.6" r="5" fill="#e76f51"/>
<circle cx="680.0" cy="278.3" r="5" fill="#e76f51"/>
<line x1="715" y1="82" x2="741" y2="82" stroke="#3b4252" stroke-width="4"/>
<text x="751" y="87" class="legend">classic-unary</text>
<line x1="715" y1="112" x2="741" y2="112" stroke="#2a9d8f" stroke-width="4"/>
<text x="751" y="117" class="legend">unary-batched</text>
<line x1="715" y1="142" x2="741" y2="142" stroke="#457b9d" stroke-width="4"/>
<text x="751" y="147" class="legend">gRPC streaming</text>
<line x1="715" y1="172" x2="741" y2="172" stroke="#e76f51" stroke-width="4"/>
<text x="751" y="177" class="legend">RabbitMQ Streams</text>
</svg>