<svg xmlns="http://www.w3.org/2000/svg" width="900" height="560" viewBox="0 0 900 560">
<style>text{font-family:Arial,Helvetica,sans-serif;fill:#1f2933}.title{font-size:20px;font-weight:700}.label{font-size:13px}.tick{font-size:12px;fill:#52606d}.legend{font-size:13px}.grid{stroke:#d9e2ec;stroke-width:1}.axis{stroke:#243b53;stroke-width:1.4}</style>
<rect width="100%" height="100%" fill="#ffffff"/>
<text x="90" y="38" class="title">Peak memory at 250k rows</text>
<line x1="90" y1="415.0" x2="860" y2="415.0" class="grid"/>
<text x="78" y="419.0" text-anchor="end" class="tick">0</text>
<line x1="90" y1="346.0" x2="860" y2="346.0" class="grid"/>
<text x="78" y="350.0" text-anchor="end" class="tick">840</text>
<line x1="90" y1="277.0" x2="860" y2="277.0" class="grid"/>
<text x="78" y="281.0" text-anchor="end" class="tick">1680</text>
<line x1="90" y1="208.0" x2="860" y2="208.0" class="grid"/>
<text x="78" y="212.0" text-anchor="end" class="tick">2520</text>
<line x1="90" y1="139.0" x2="860" y2="139.0" class="grid"/>
<text x="78" y="143.0" text-anchor="end" class="tick">3360</text>
<line x1="90" y1="70.0" x2="860" y2="70.0" class="grid"/>
<text x="78" y="74.0" text-anchor="end" class="tick">4200</text>
<line x1="90" y1="70" x2="90" y2="415" class="axis"/>
<line x1="90" y1="415" x2="860" y2="415" class="axis"/>
<rect x="144.6" y="111.5" width="124.2" height="303.5" fill="#3b4252"/>
<text x="206.7" y="103.5" text-anchor="middle" class="tick">3695</text>
<text x="206.7" y="435.0" text-anchor="end" class="tick" transform="rotate(-25 206.7 435.0)">classic-unary</text>
<rect x="323.5" y="301.8" width="124.2" height="113.2" fill="#2a9d8f"/>
<text x="385.6" y="293.8" text-anchor="middle" class="tick">1378</text>
<text x="385.6" y="435.0" text-anchor="end" class="tick" transform="rotate(-25 385.6 435.0)">unary-batched</text>
<rect x="502.3" y="292.2" width="124.2" height="122.8" fill="#457b9d"/>
<text x="564.4" y="284.2" text-anchor="middle" class="tick">1495</text>
<text x="564.4" y="435.0" text-anchor="end" class="tick" transform="rotate(-25 564.4 435.0)">gRPC streaming</text>
<rect x="681.2" y="274.1" width="124.2" height="140.9" fill="#e76f51"/>
<text x="743.3" y="266.1" text-anchor="middle" class="tick">1715</text>
<text x="743.3" y="435.0" text-anchor="end" class="tick" transform="rotate(-25 743.3 435.0)">RabbitMQ Streams</text>
<text x="22" y="242.5" text-anchor="middle" class="label" transform="rotate(-90 22 242.5)">Peak memory (MiB)</text>
</svg>